<svg preserveAspectRatio="none" overflow="visible" style="display: block;" width="19.5732" height="20" viewBox="0 0 19.5732 20" fill="none" xmlns="http://www.w3.org/2000/svg">
<g id="Group">
<path id="Vector" d="M19.3987 8.1814H9.9849V12.0445H15.3598C15.1286 13.294 14.4294 14.3596 13.3676 15.0712C12.4746 15.6716 11.3266 16.0211 9.9849 16.0211C7.3864 16.0211 5.1823 14.2666 4.3947 11.9004C4.1952 11.2989 4.0853 10.6599 4.0853 9.9983C4.0853 9.3367 4.1952 8.6966 4.3947 8.0962C5.1823 5.7311 7.3864 3.9755 9.9849 3.9755C11.4524 3.9755 12.767 4.4816 13.8039 5.4713L16.6653 2.6057C14.936 0.9908 12.6786 0 9.9849 0C6.0832 0 2.705 2.2414 1.0618 5.5076C0.383 6.8592 0 8.3834 0 9.9994C0 11.6155 0.383 13.1396 1.0618 14.4913C2.705 17.7597 6.0832 20 9.9849 20C12.6797 20 14.9485 19.1137 16.6018 17.5861C18.4887 15.8452 19.5732 13.2702 19.5732 10.2275C19.5732 9.5182 19.5131 8.835 19.3987 8.1825V8.1814Z" fill="#E94FFF"/>
</g>
</svg>
